<svg xmlns="http://www.w3.org/2000/svg" width="800" height="600" data-software-used-string="@tscircuit/core@0.0.1437"><style></style><rect class="boundary" x="0" y="0" fill="#000" width="800" height="600" data-type="pcb_background" data-pcb-layer="global"/><rect class="pcb-boundary" fill="none" stroke="#fff" stroke-width="0.3" x="22.18181950670447" y="156.2156492301603" width="755.6363609865912" height="287.5687015396795" data-type="pcb_boundary" data-pcb-layer="global"/><path class="pcb-silkscreen pcb-silkscreen-top" d="M 99.22024578082181 313.50684706128925 L 99.22024578082181 367.0315775309674 L 152.74497625050003 367.0315775309674" fill="none" stroke="#f2eda1" stroke-width="2.21818195067045" stroke-linecap="round" stroke-linejoin="round" data-pcb-component-id="pcb_component_0" data-pcb-silkscreen-path-id="pcb_silkscreen_path_0" data-type="pcb_silkscreen_path" data-pcb-layer="top"/><path class="pcb-silkscreen pcb-silkscreen-top" d="M 152.74497625050003 386.75121507242795 L 99.22024578082181 386.75121507242795 L 99.22024578082181 440.2759455421036" fill="none" stroke="#f2eda1" stroke-width="2.21818195067045" stroke-linecap="round" stroke-linejoin="round" data-pcb-component-id="pcb_component_0" data-pcb-silkscreen-path-id="pcb_silkscreen_path_1" data-type="pcb_silkscreen_path" data-pcb-layer="top"/><path class="pcb-silkscreen pcb-silkscreen-top" d="M 265.40889970701767 439.80999867790945 L 265.40889970701767 389.10235928558166 L 211.88416923733695 389.10235928558166" fill="none" stroke="#f2eda1" stroke-width="2.21818195067045" stroke-linecap="round" stroke-linejoin="round" data-pcb-component-id="pcb_component_0" data-pcb-silkscreen-path-id="pcb_silkscreen_path_2" data-type="pcb_silkscreen_path" data-pcb-layer="top"/><path class="pcb-silkscreen pcb-silkscreen-top" d="M 341.4703587955068 386.28526820823123 L 287.9456283258261 386.28526820823123 L 287.9456283258261 439.80999867790945" fill="none" stroke="#f2eda1" stroke-width="2.21818195067045" stroke-linecap="round" stroke-linejoin="round" data-pcb-component-id="pcb_component_0" data-pcb-silkscreen-path-id="pcb_silkscreen_path_3" data-type="pcb_silkscreen_path" data-pcb-layer="top"/><path class="pcb-silkscreen pcb-silkscreen-top" d="M 287.9456283258261 313.0409001970925 L 287.9456283258261 366.56563066677074 L 341.4703587955068 366.56563066677074" fill="none" stroke="#f2eda1" stroke-width="2.21818195067045" stroke-linecap="round" stroke-linejoin="round" data-pcb-component-id="pcb_component_0" data-pcb-silkscreen-path-id="pcb_silkscreen_path_4" data-type="pcb_silkscreen_path" data-pcb-layer="top"/><path class="pcb-silkscreen pcb-silkscreen-top" d="M 211.88416923733695 366.56563066677074 L 265.40889970701767 366.56563066677074 L 265.40889970701767 313.0409001970925" fill="none" stroke="#f2eda1" stroke-width="2.21818195067045" stroke-linecap="round" stroke-linejoin="round" data-pcb-component-id="pcb_component_0" data-pcb-silkscreen-path-id="pcb_silkscreen_path_5" data-type="pcb_silkscreen_path" data-pcb-layer="top"/><path class="pcb-silkscreen pcb-silkscreen-top" d="M 23.158786692332683 367.032140949181 L 76.68351716200834 367.032140949181 L 76.68351716200834 313.50741047950277" fill="none" stroke="#f2eda1" stroke-width="2.21818195067045" stroke-linecap="round" stroke-linejoin="round" data-pcb-component-id="pcb_component_0" data-pcb-silkscreen-path-id="pcb_silkscreen_path_6" data-type="pcb_silkscreen_path" data-pcb-layer="top"/><path class="pcb-silkscreen pcb-silkscreen-top" d="M 76.68351716200834 440.2765089603197 L 76.68351716200834 389.5688695679919 L 23.158786692332683 389.5688695679919" fill="none" stroke="#f2eda1" stroke-width="2.21818195067045" stroke-linecap="round" stroke-linejoin="round" data-pcb-component-id="pcb_component_0" data-pcb-silkscreen-path-id="pcb_silkscreen_path_7" data-type="pcb_silkscreen_path" data-pcb-layer="top"/><path class="pcb-silkscreen pcb-silkscreen-top" d="M 342.62029537328044 377.8362486490392 L 340.373168285708 394.9048734662704 L 333.78492502046214 410.81029970943825 L 323.3045434684794 424.46859886503876 L 309.6462443128789 434.9489804170215 L 293.740818069711 441.5372236822674 L 276.6721932524823 443.7843507698398 L 259.6035684352512 441.5372236822674 L 243.69814219208328 434.9489804170215 L 230.0398430364828 424.46859886503876 L 219.55946148450252 410.81029970943825 L 212.97121821925415 394.9048734662704 L 210.72409113168425 377.8362486490392 L 212.97121821925415 360.76762383181057 L 219.55946148450252 344.86219758864263 L 230.0398430364828 331.2038984330422 L 243.69814219208328 320.7235168810619 L 259.6035684352512 314.1352736158135 L 276.6721932524823 311.8881465282411 L 293.740818069711 314.1352736158135 L 309.6462443128789 320.7235168810619 L 323.3045434684794 331.2038984330422 L 333.78492502046214 344.86219758864263 L 340.373168285708 360.76762383181057 L 342.62029537328044 377.8362486490392 Z" fill="none" stroke="#f2eda1" stroke-width="2.21818195067045" stroke-linecap="round" stroke-linejoin="round" data-pcb-component-id="pcb_component_0" data-pcb-silkscreen-path-id="pcb_silkscreen_path_8" data-type="pcb_silkscreen_path" data-pcb-layer="top"/><path class="pcb-silkscreen pcb-silkscreen-top" d="M 154.07802374829814 377.8362486490392 L 151.83089666073076 394.9048734662704 L 145.24265339548236 410.81029970943825 L 134.7622718435021 424.46859886503876 L 121.1039726879016 434.9489804170215 L 105.19854644472866 441.5372236822674 L 88.12992162750254 443.7843507698398 L 71.06129681027392 441.5372236822674 L 55.155870567100976 434.9489804170215 L 41.49757141150553 424.46859886503876 L 31.017189859522773 410.81029970943825 L 24.428946594274407 394.9048734662704 L 22.18181950670447 377.8362486490392 L 24.428946594274407 360.76762383181057 L 31.017189859522773 344.86219758864263 L 41.49757141150553 331.2038984330422 L 55.155870567100976 320.7235168810619 L 71.06129681027392 314.1352736158135 L 88.12992162750254 311.8881465282411 L 105.19854644472866 314.1352736158135 L 121.1039726879016 320.7235168810619 L 134.7622718435021 331.2038984330422 L 145.24265339548236 344.86219758864263 L 151.83089666073076 360.76762383181057 L 154.07802374829814 377.8362486490392 Z" fill="none" stroke="#f2eda1" stroke-width="2.21818195067045" stroke-linecap="round" stroke-linejoin="round" data-pcb-component-id="pcb_component_0" data-pcb-silkscreen-path-id="pcb_silkscreen_path_9" data-type="pcb_silkscreen_path" data-pcb-layer="top"/><text x="0" y="0" dx="0" dy="0" fill="#f2eda1" font-family="Arial, sans-serif" font-size="22.1818195067045" text-anchor="middle" dominant-baseline="central" transform="matrix(1,0,0,1,183.51099132446706,156.2156492301603)" class="pcb-silkscreen-text pcb-silkscreen-top" data-pcb-silkscreen-text-id="pcb_silkscreen_text_0" stroke="none" data-type="pcb_silkscreen_text" data-pcb-layer="top">JLC_C496127</text><path class="pcb-silkscreen pcb-silkscreen-top" d="M 582.561924250081 312.39754314048525 L 582.561924250081 245.85208462037178 L 612.285562389065 245.85208462037178 L 613.4168510043675 251.53945655307393 L 616.6384884137517 256.36097766517713 L 621.460009525855 259.5826150745614 L 627.147381458557 260.7139036898638 L 632.8347533912593 259.5826150745614 L 637.6562745033624 256.36097766517713 L 640.8779119127466 251.53945655307393 L 642.0092005280491 245.85208462037178 L 671.7328386670331 245.85208462037178 L 671.7328386670331 312.39754314048525 L 582.561924250081 312.39754314048525 Z" fill="none" stroke="#f2eda1" stroke-width="2.21818195067045" stroke-linecap="round" stroke-linejoin="round" data-pcb-component-id="pcb_component_1" data-pcb-silkscreen-path-id="pcb_silkscreen_path_10" data-type="pcb_silkscreen_path" data-pcb-layer="top"/><text x="0" y="0" dx="0" dy="0" fill="#f2eda1" font-family="Arial, sans-serif" font-size="13.309091704022702" text-anchor="middle" dominant-baseline="central" transform="matrix(1,0,0,1,627.147381458557,234.76117486701952)" class="pcb-silkscreen-text pcb-silkscreen-top" data-pcb-silkscreen-text-id="pcb_silkscreen_text_1" stroke="none" data-type="pcb_silkscreen_text" data-pcb-layer="top">MATCHED</text><g data-type="pcb_plated_hole" data-pcb-layer="through" data-pad-name="JLC_C496127.pin1"><circle class="pcb-hole-outer" fill="rgb(200, 52, 52)" cx="98.9982590039229" cy="279.1248138804285" r="28.836307685985133" data-type="pcb_plated_hole" data-pcb-layer="top"/><circle class="pcb-hole-inner" fill="#FF26E2" cx="98.9982590039229" cy="279.1248138804285" r="17.74542011445239" data-type="pcb_plated_hole_drill" data-pcb-layer="drill"/></g><g data-type="pcb_plated_hole" data-pcb-layer="through" data-pad-name="JLC_C496127.pin2"><circle class="pcb-hole-outer" fill="rgb(200, 52, 52)" cx="268.0237236450112" cy="279.1248138804285" r="28.836307685985133" data-type="pcb_plated_hole" data-pcb-layer="top"/><circle class="pcb-hole-inner" fill="#FF26E2" cx="268.0237236450112" cy="279.1248138804285" r="17.74542011445239" data-type="pcb_plated_hole_drill" data-pcb-layer="drill"/></g><g data-type="pcb_plated_hole" data-pcb-layer="through" data-pad-name="MATCHED.pin1"><circle class="pcb-hole-outer" fill="rgb(200, 52, 52)" cx="542.634649138013" cy="279.1248138804285" r="28.83636535871585" data-type="pcb_plated_hole" data-pcb-layer="top"/><circle class="pcb-hole-inner" fill="#FF26E2" cx="542.634649138013" cy="279.1248138804285" r="17.7454556053636" data-type="pcb_plated_hole_drill" data-pcb-layer="drill"/></g><g data-type="pcb_plated_hole" data-pcb-layer="through" data-pad-name="MATCHED.pin2"><circle class="pcb-hole-outer" fill="rgb(200, 52, 52)" cx="711.6601137791013" cy="279.1248138804285" r="28.83636535871585" data-type="pcb_plated_hole" data-pcb-layer="top"/><circle class="pcb-hole-inner" fill="#FF26E2" cx="711.6601137791013" cy="279.1248138804285" r="17.7454556053636" data-type="pcb_plated_hole_drill" data-pcb-layer="drill"/></g><text x="0" y="0" font-family="Arial, sans-serif" font-size="6.65454585201135" text-anchor="end" dominant-baseline="text-before-edge" transform="matrix(0.9998476951563913,0.01745240643728351,-0.01745240643728351,0.9998476951563913,500.48919207527433,275.79754095442286)" class="pcb-fabrication-note-text" fill="rgba(255,255,255,0.5)" data-type="pcb_fabrication_note_text" data-pcb-layer="overlay">{pin1}</text><text x="0" y="0" font-family="Arial, sans-serif" font-size="6.65454585201135" text-anchor="start" dominant-baseline="text-before-edge" transform="matrix(0.9998476951563913,0.01745240643728351,-0.01745240643728351,0.9998476951563913,753.8055708418398,275.79754095442286)" class="pcb-fabrication-note-text" fill="rgba(255,255,255,0.5)" data-type="pcb_fabrication_note_text" data-pcb-layer="overlay">{pin2}</text></svg>